# xmcd
#
# Track frame offsets:
#	150
#	11848
#	35167
#	53316
#	70005
#	87814
#	102760
#	118565
#	142551
#	159519
#	180360
#	194718
#	211976
#	227971
#	242971
#	262749
#	284500
#	305226
#
# Disc length: 4270 seconds
#
# Revision: 0
# Processed by: cddbd v1.5.2PL0 Copyright (c) Steve Scherf et al.
# Submitted via: dBpowerAMP V4.0
#
DISCID=f510ac12
DTITLE=Nativistas - 17 Sapecada da Cancao Nativa
DYEAR=2009
DGENRE=Folk
TTITLE0=Idioma de Cordeona - Idelberto Bergamo
TTITLE1=Milonga para Cantar Querencia - Lizandro Amaral, Luiz Marenco e Indio Ribeiro
TTITLE2=Chora Gaita Veia - Pirisca Grecco
TTITLE3=Adelante - Robledo Martins e Rui Carlos Avila
TTITLE4=Bem a Cavalo -Angelo Franco e Juliano Moreno
TTITLE5=Eta Carretas - Cristiano Quevedo
TTITLE6=Foi Bem Depois do Pealo - Roberto Lucardo
TTITLE7=Toada em Voz de Silencio - Raineri Spohr
TTITLE8=Che Amigo - Ita Cunha
TTITLE9=O Po das Tropas - Joca Martins e Fabiano Bachieri
TTITLE10=Quatro Cantos do Planeta - Shana Muller
TTITLE11=Candombeando a Milonga - Pirisca Grecco
TTITLE12=Nao Calarao Nossa Voz - Joca Martins e Fabiano Baccieri
TTITLE13=Pra que Retornem meus Sonhos - Raineri Spohr
TTITLE14=Amanssando de Garupa - Lisandro Amaral
TTITLE15=Pra quem se Emponchou na Estrada - Cristiano Quevedo
TTITLE16=De Partida - Juliano Moreno
TTITLE17=Futebol de Campanha - Edilberto Bergamo
EXTD=
EXTT0=
EXTT1=
EXTT2=
EXTT3=
EXTT4=
EXTT5=
EXTT6=
EXTT7=
EXTT8=
EXTT9=
EXTT10=
EXTT11=
EXTT12=
EXTT13=
EXTT14=
EXTT15=
EXTT16=
EXTT17=
PLAYORDER=
